<svg xmlns="http://www.w3.org/2000/svg" version="1.1" xmlns:xlink="http://www.w3.org/1999/xlink" xmlns:svgjs="http://svgjs.dev/svgjs" width="1857" height="900" preserveAspectRatio="none" viewBox="0 0 1857 900"><g mask="url(&quot;#SvgjsMask1029&quot;)" fill="none"><rect width="1857" height="900" x="0" y="0" fill="rgba(253, 250, 243, 1)"></rect><path d="M2207.16 526.69C2077.76 526.01 1954.53 414.19 1701.91 414.19 1449.28 414.19 1480.54 541.76 1196.66 526.69 912.78 511.62 882.59-39.99 691.41-107.24" stroke="rgba(224, 227, 227, 1)" stroke-width="2"></path><path d="M2207.2 387.69C1994.87 390.9 1817.16 652.38 1398.87 648.69 980.58 645 852.77 1.4 590.54-43.72" stroke="rgba(224, 227, 227, 1)" stroke-width="2"></path><path d="M1888.54 586.18C1713.98 590.52 1526.88 864.96 1237.15 838.18 947.42 811.4 1076.1 122.35 911.45-46.17" stroke="rgba(224, 227, 227, 1)" stroke-width="2"></path><path d="M2200.54 778.34C1964 774.16 1695.97 502.85 1305.06 472.34 914.15 441.83 1019.09 15.71 857.32-31.4" stroke="rgba(224, 227, 227, 1)" stroke-width="2"></path><path d="M2137.01 518.41C1937.86 522.08 1698.17 793.95 1384.26 779.41 1070.34 764.87 1184.92 103.35 1007.88-33.98" stroke="rgba(224, 227, 227, 1)" stroke-width="2"></path></g><defs><mask id="SvgjsMask1029"><rect width="1857" height="900" fill="#ffffff"></rect></mask></defs></svg>