<svg xmlns="http://www.w3.org/2000/svg" version="1.1" xmlns:xlink="http://www.w3.org/1999/xlink" xmlns:svgjs="http://svgjs.dev/svgjs" width="1857" height="900" preserveAspectRatio="none" viewBox="0 0 1857 900"><g mask="url(&quot;#SvgjsMask1014&quot;)" fill="none"><rect width="1857" height="900" x="0" y="0" fill="rgba(33, 37, 41, 1)"></rect><path d="M909.36 1052.94C1065.94 975.39 992.8 467.76 1286.9 464.76 1581 461.76 1841.54 730.74 2041.98 734.76" stroke="rgba(224, 227, 227, 0.39)" stroke-width="2"></path><path d="M972.02 1008.39C1119.03 927.92 1041.6 439.24 1316.69 433.42 1591.77 427.6 1826.73 629.47 2006.02 631.42" stroke="rgba(224, 227, 227, 0.39)" stroke-width="2"></path><path d="M626.34 1012.07C870.52 944.83 960.21 267.17 1310.92 265.32 1661.64 263.47 1792.77 687.78 1995.51 706.32" stroke="rgba(224, 227, 227, 0.39)" stroke-width="2"></path><path d="M991.56 901.51C1128.43 861.37 1015.82 522.2 1369.76 474.33 1723.7 426.46 1907.82 49.04 2126.15 33.33" stroke="rgba(224, 227, 227, 0.39)" stroke-width="2"></path><path d="M575.19 1006.09C789.59 869.79 674.8 118.28 1057.02 111.33 1439.23 104.38 1760.32 499.71 2020.67 507.33" stroke="rgba(224, 227, 227, 0.39)" stroke-width="2"></path></g><defs><mask id="SvgjsMask1014"><rect width="1857" height="900" fill="#ffffff"></rect></mask></defs></svg>